<?xml version="1.0" encoding="UTF-8" standalone="no"?>
<svg xmlns="http://www.w3.org/2000/svg"
   version="1.1"
   viewBox="0 0 48 48"
   height="48"
   width="48">
  <g transform="translate(0,-1004.3622)">
    <path d="M 23.999916,1008.3622 A 19.999987,19.999987 0 0 0 4,1028.3623 19.999987,19.999987 0 0 0 23.999916,1048.3622 19.999987,19.999987 0 0 0 44,1028.3623 19.999987,19.999987 0 0 0 23.999916,1008.3622 Z m -2.490643,5.6791 4.981286,0 0,11.8303 11.830384,0 0,4.9813 -11.830384,0 0,11.8302 -4.981286,0 0,-11.8302 -11.8302162,0 0,-4.9813 11.8302162,0 0,-11.8303 z"
       style="fill:#909090;stroke:none" />
  </g>
</svg>
