<?xml version="1.0" encoding="UTF-8" standalone="no"?>
<svg xmlns="http://www.w3.org/2000/svg"
   version="1.1"
   viewBox="0 0 48 48"
   height="48"
   width="48">
  <g transform="translate(0,-1004.3622)">
    <g style="fill:#909090"
       transform="translate(0,3.2730038)">
      <ellipse
         style="fill:#909090"
         cx="24.000002"
         cy="1010.3777"
         rx="19.508572"
         ry="4.7350903" />
      <path
         style="fill:#909090"
         d="m 43.433596,1012.542 a 19.508571,4.7350902 0 0 1 -19.509766,4.7363 19.508571,4.7350902 0 0 1 -19.4453128,-4.3731 l 0,7.2129 0.033203,0 a 19.508571,4.7350902 0 0 0 -0.00781,0.068 19.508571,4.7350902 0 0 0 19.5097658,4.7344 19.508571,4.7350902 0 0 0 19.507812,-4.7344 19.508571,4.7350902 0 0 0 -0.02539,-0.1133 l 0,-7.5312 -0.0625,0 z" />
      <path
         style="fill:#909090"
         d="m 43.433595,1022.3495 a 19.508572,4.7350905 0 0 1 -19.509767,4.7363 19.508572,4.7350905 0 0 1 -19.4453124,-4.373 l 0,7.2129 0.033203,0 a 19.508572,4.7350905 0 0 0 -0.00781,0.068 19.508572,4.7350905 0 0 0 19.5097654,4.7344 19.508572,4.7350905 0 0 0 19.507813,-4.7344 19.508572,4.7350905 0 0 0 -0.02539,-0.1132 l 0,-7.5313 -0.0625,0 z" />
      <path
         style="fill:#909090"
         d="m 43.433595,1032.1572 a 19.508572,4.7350905 0 0 1 -19.509767,4.7363 19.508572,4.7350905 0 0 1 -19.4453124,-4.373 l 0,7.2129 0.033203,0 a 19.508572,4.7350905 0 0 0 -0.00781,0.068 19.508572,4.7350905 0 0 0 19.5097654,4.7344 19.508572,4.7350905 0 0 0 19.507813,-4.7344 19.508572,4.7350905 0 0 0 -0.02539,-0.1132 l 0,-7.5313 -0.0625,0 z" />
    </g>
  </g>
</svg>
