<?xml version="1.0" encoding="UTF-8" standalone="no"?>
<svg xmlns="http://www.w3.org/2000/svg"
   version="1.1"
   viewBox="0 0 170.07874 170.07874"
   height="170.07874"
   width="170.07874">
  <g transform="translate(0,-882.28346)">
    <path d="m 57.035768,931.67833 -1.344405,-31.60463 8.827343,0 -1.344404,31.60463 z"
       style="fill:#A53F00" />
    <path style="fill:#A53F00"
       d="m 48.865205,934.20141 -12.072747,-29.23883 8.294988,-3.01912 9.546094,30.15845 z" />
    <path d="m 42.050331,939.36682 -21.344939,-23.34638 6.762139,-5.6741 19.285192,25.07472 z"
       style="fill:#A53F00" />
    <path style="fill:#A53F00"
       d="m 37.413118,946.55154 -28.0426115,-14.63801 4.4136715,-7.6447 26.698214,16.9666 z" />
    <path d="m 35.512884,954.889 -31.3579305,-4.16409 1.532852,-8.69324 30.8910355,6.81207 z"
       style="fill:#A53F00" />
    <path style="fill:#A53F00"
       d="M 36.578825,963.37357 5.6878055,970.18564 4.1549525,961.4924 35.512897,957.3283 Z" />
    <path d="M 40.482374,970.98187 13.784178,987.94844 9.3705045,980.30377 37.413128,965.66575 Z"
       style="fill:#A53F00" />
    <path style="fill:#A53F00"
       d="m 46.752705,976.79625 -19.285176,25.07475 -6.76214,-5.67415 21.344948,-23.34638 z" />
    <path d="m 54.633522,980.1154 -9.546077,30.1585 -8.294992,-3.0192 12.072755,-29.23881 z"
       style="fill:#A53F00" />
    <path style="fill:#A53F00"
       d="m 63.174286,980.53898 1.344416,31.60462 -8.827343,0 1.344408,-31.60464 z" />
    <path d="m 71.344852,978.01591 12.072762,29.23879 -8.294999,3.0192 -9.546092,-30.15852 z"
       style="fill:#A53F00" />
    <path style="fill:#A53F00"
       d="m 78.159734,972.8505 21.344934,23.34635 -6.762149,5.67415 -19.285183,-25.07476 z" />
    <path d="m 82.796947,965.66577 28.042603,14.638 -4.41368,7.64467 -26.698207,-16.96658 z"
       style="fill:#A53F00" />
    <path style="fill:#A53F00"
       d="m 84.697169,957.32832 31.357931,4.16408 -1.53287,8.69324 -30.891024,-6.81207 z" />
    <path d="m 83.631238,948.84375 30.891002,-6.81208 1.53285,8.69325 -31.357953,4.1641 z"
       style="fill:#A53F00" />
    <path style="fill:#A53F00"
       d="m 79.727695,941.23545 26.698175,-16.96662 4.41367,7.64471 -28.042614,14.63804 z" />
    <path d="m 73.457365,935.42106 19.285154,-25.07471 6.762139,5.67411 -21.344935,23.34639 z"
       style="fill:#A53F00" />
    <path style="fill:#A53F00"
       d="m 65.576547,932.1019 9.546068,-30.15843 8.294999,3.01914 -12.072755,29.23883 z" />
    <path d="m 118.66205,923.55729 37.10376,-20.23151 0.17077,14.80464 8.05477,11.46859 -39.60928,12.22862 -5.55545,-7.99465 z"
       style="fill:#A53F00" />
    <path transform="matrix(0.36770908,0,0,1.3142022,42.778333,-263.26995)"
       d="m 84.957211,994.27679 -37.95721,0 -37.9572123,0 L 28.021394,961.40488 47,928.53297 65.978605,961.40488 Z"
       style="fill:#A53F00" />
  </g>
</svg>
